<!-- Generated by IcoMoon.io -->
<svg version="1.1" xmlns="http://www.w3.org/2000/svg" width="512" height="512" viewBox="0 0 512 512">
<title></title>
<g id="icomoon-ignore">
</g>
<path d="M202.1 224.3c6.5-4.7 9.6-12.5 9.6-23.3 0-6-1-10.9-3.1-14.7-2.2-3.8-5-6.8-8.7-8.9-3.6-2.2-7.7-3.7-12.4-4.5-4.6-0.9-9.5-1.3-14.5-1.3h-52.7v59.8h57c10 0.1 18.3-2.3 24.8-7.1z"></path>
<path d="M211 278.3c-7.4-5.6-17.2-8.4-29.4-8.4h-61.3v70.5h60.1c5.6 0 10.8-0.5 15.8-1.6s9.5-2.8 13.3-5.4c3.8-2.5 6.9-5.9 9.2-10.2s3.4-9.9 3.4-16.6c0-13.2-3.7-22.6-11.1-28.3z"></path>
<path d="M464 0h-416c-26.4 0-48 21.6-48 48v416c0 26.4 21.6 48 48 48h416c26.4 0 48-21.6 48-48v-416c0-26.4-21.6-48-48-48zM335.6 134.7h103.7v25.3h-103.7v-25.3zM270.8 343.2c-5 9.5-11.8 17.2-20.2 23.2-8.5 6-18.2 10.4-29.1 13.3-10.8 2.9-22 4.3-33.4 4.3h-124.1v-255.9h120.6c12.2 0 23.3 1.1 33.4 3.2 10 2.1 18.6 5.7 25.8 10.6 7.1 4.9 12.7 11.4 16.7 19.5 3.9 8 5.9 18.1 5.9 30 0 12.9-2.9 23.6-8.8 32.2s-14.5 15.6-26.1 21.1c15.8 4.5 27.4 12.5 35.1 23.8 7.8 11.4 11.6 25.1 11.6 41.1 0.1 13.1-2.4 24.3-7.4 33.6zM479.7 303.6h-133.7c0 14.6 5 28.5 12.6 36 7.6 7.4 18.6 11.2 32.9 11.2 10.3 0 19.1-2.6 26.6-7.8 7.4-5.2 11.9-10.7 13.6-16.4h44.8c-7.2 22.3-18.1 38.2-33 47.8-14.7 9.6-32.7 14.4-53.6 14.4-14.6 0-27.7-2.4-39.5-7-11.8-4.7-21.6-11.3-29.9-19.9-8.1-8.6-14.3-18.9-18.8-30.9-4.4-11.9-6.7-25.2-6.7-39.5 0-13.9 2.3-26.8 6.8-38.8 4.6-12 11-22.4 19.4-31 8.4-8.7 18.4-15.6 30-20.7 11.6-5 24.4-7.5 38.6-7.5 15.7 0 29.4 3 41.2 9.2 11.7 6.1 21.3 14.3 28.9 24.6s12.9 22 16.3 35.2c3.3 13 4.4 26.7 3.5 41.1z"></path>
<path d="M388.3 231.9c-8.1 0-14.9 1.4-20.2 4.2s-9.6 6.2-12.9 10.2c-3.3 4.1-5.5 8.4-6.8 13.1-1.3 4.5-2.1 8.6-2.3 12.2h82.8c-1.2-13-5.7-22.6-11.7-29.3-6.2-6.8-16.4-10.4-28.9-10.4z"></path>
</svg>
